<?xml version="1.0" encoding="iso-8859-1"?>
<!-- Generator: Adobe Illustrator 19.0.0, SVG Export Plug-In . SVG Version: 6.00 Build 0)  -->
<svg version="1.1" id="Capa_1" xmlns="http://www.w3.org/2000/svg" xmlns:xlink="http://www.w3.org/1999/xlink" x="0px" y="0px"
	 viewBox="0 0 512 512" style="enable-background:new 0 0 512 512;" xml:space="preserve">
<g>
	<g>
		
			<rect fill="white" x="35.28" y="293.329" transform="matrix(0.7071 -0.7071 0.7071 0.7071 -175.9049 183.3199)" width="196.108" height="21.333"/>
	</g>
</g>
<g>
	<g>
		
			<rect fill="white" x="368.007" y="205.997" transform="matrix(0.7071 -0.7071 0.7071 0.7071 -104.0859 356.817)" width="21.333" height="196.108"/>
	</g>
</g>
<g>
	<g>
		<path fill="white"  d="M480,74.667H32c-17.673,0-32,14.327-32,32v298.667c0,17.673,14.327,32,32,32h448c17.673,0,32-14.327,32-32V106.667
			C512,88.994,497.673,74.667,480,74.667z M490.667,405.333c0,5.891-4.776,10.667-10.667,10.667H32
			c-5.891,0-10.667-4.776-10.667-10.667V106.667C21.333,100.776,26.109,96,32,96h448c5.891,0,10.667,4.776,10.667,10.667V405.333z"
			/>
	</g>
</g>
<g>
	<g>
		<path fill="white" d="M484.149,87.552L256,263.851L27.851,87.552l-13.035,16.896l234.667,181.333c1.865,1.444,4.159,2.225,6.517,2.219
			c2.359,0.006,4.652-0.775,6.517-2.219l234.667-181.333L484.149,87.552z"/>
	</g>
</g>
<g>
</g>
<g>
</g>
<g>
</g>
<g>
</g>
<g>
</g>
<g>
</g>
<g>
</g>
<g>
</g>
<g>
</g>
<g>
</g>
<g>
</g>
<g>
</g>
<g>
</g>
<g>
</g>
<g>
</g>
</svg>
